<svg xmlns="http://www.w3.org/2000/svg" width="430" height="430" style="width:100%;height:100%;transform:translate3d(0,0,0);content-visibility:visible" viewBox="0 0 430 430"><defs><clipPath id="a"><path d="M0 0h430v430H0z"/></clipPath><clipPath id="b"><path d="M0 0h430v430H0z"/></clipPath></defs><g clip-path="url(#a)"><g clip-path="url(#b)" style="display:block"><g fill="#FFC738" style="display:block"><path d="M358.448 358.17c-23 23.01-60.3 23.01-83.31 0l-7.739-7.739-4.28-4.28-86.42-86.42 34.74 6.63-81.13-78.43 51.73 17.84-125.05-149.3 149.06 125.29-17.84-51.73 78.43 81.13-6.62-34.74 96.675 96.685.966.966.788.788c23.01 23 23.01 60.3 0 83.31z" class="secondary"/><path fill-opacity=".5" d="M102.116 159.611c-15.68.48-31.52-5.26-43.49-17.23l-5.436-5.436-5.196-5.196-87.808-87.808 34.74 6.63-81.13-78.43 51.731 17.84-125.051-149.3 104.39 87.74 75.48 90.12-51.73-17.84 81.13 78.43-34.739-6.63 87.109 87.11z" class="secondary" style="mix-blend-mode:multiply" transform="translate(216.25 215.25)"/></g><path fill="none" stroke="#121331" stroke-linecap="round" stroke-linejoin="round" stroke-width="7" d="m274.32 357.415-1.055-1.056-.26-.259-97.123-97.124 34.736 6.63-81.13-78.435 51.73 17.843L54.759 54.564m160.157 159.944 48.815 48.815m12.107-27.618 16.132 16.132m-55.896 23.638 16.13 16.13m105.409 65.826s0 0 0 0c-23.006 23.005-60.305 23.005-83.31 0m83.313-.002s0 0 0 0c23.005-23.005 23.005-60.305 0-83.31m0 0-1.056-1.056-.258-.259-97.124-97.124 6.629 34.737-78.435-81.131 17.843 51.73L54.765 54.558" class="primary" style="display:block"/><g fill="#F24C00" style="display:block"><path d="M352.015 314.195c0 19.813-16.062 35.875-35.875 35.875s-35.875-16.062-35.875-35.875 16.062-35.876 35.875-35.876 35.875 16.063 35.875 35.876z" class="tertiary"/><path d="M118.763 130.53a35.75 35.75 0 0 1-17.49 4.54c-19.81 0-35.87-16.06-35.87-35.88 0-18.35 13.78-33.48 31.55-35.61-10.98 6.13-18.4 17.86-18.4 31.33 0 19.82 16.06 35.88 35.87 35.88 1.47 0 2.92-.09 4.34-.26z" class="tertiary" opacity=".5" style="mix-blend-mode:multiply" transform="translate(215 215)"/></g><path fill="none" stroke="#121331" stroke-linecap="round" stroke-linejoin="round" stroke-width="7" d="M35.875 0c0 19.813-16.062 35.875-35.875 35.875S-35.875 19.813-35.875 0-19.813-35.875 0-35.875 35.875-19.813 35.875 0z" class="primary" style="display:block" transform="translate(315.971 314.264)"/></g></g></svg>